<?xml version="1.0" standalone="no"?>
<!DOCTYPE svg PUBLIC "-//W3C//DTD SVG 20010904//EN"
 "http://www.w3.org/TR/2001/REC-SVG-20010904/DTD/svg10.dtd">
<svg version="1.0" xmlns="http://www.w3.org/2000/svg"
 width="2048.000000pt" height="2048.000000pt" viewBox="0 0 2048.000000 2048.000000"
 preserveAspectRatio="xMidYMid meet">
<metadata>
Created by potrace 1.11, written by Peter Selinger 2001-2013
</metadata>
<g transform="translate(0.000000,2048.000000) scale(0.100000,-0.100000)"
fill="#000000" stroke="none">
<path d="M4655 14065 c-5 -2 -22 -6 -37 -9 -39 -9 -98 -64 -119 -111 -32 -69
-25 -107 51 -289 253 -605 423 -1226 497 -1811 25 -198 25 -625 0 -785 -83
-533 -305 -871 -702 -1067 -85 -42 -233 -99 -240 -92 -2 2 -34 101 -70 219
-130 420 -268 851 -400 1244 -144 429 -150 443 -233 482 -84 40 -211 -4 -255
-88 -40 -79 -40 -81 118 -553 126 -381 255 -781 403 -1257 l40 -128 -35 -6
c-19 -4 -127 -4 -241 -1 -224 6 -300 18 -479 78 -631 209 -1118 900 -1382
1956 -88 352 -157 791 -176 1113 -8 122 -17 159 -52 201 -43 50 -97 72 -169
67 -76 -5 -125 -38 -162 -109 -22 -41 -23 -51 -18 -169 14 -275 73 -692 147
-1029 184 -834 503 -1500 922 -1923 424 -429 968 -632 1569 -588 84 6 162 13
174 16 18 5 23 -1 31 -33 6 -21 67 -231 136 -468 222 -757 474 -1672 702
-2545 140 -538 410 -1619 404 -1623 -2 -2 -494 -101 -1094 -220 -1348 -269
-2339 -472 -3617 -743 l-368 -78 0 -204 0 -205 33 6 c17 3 394 82 837 176
2528 533 5122 1044 7540 1485 999 182 1322 238 1330 229 3 -4 21 -73 39 -153
137 -610 366 -1480 706 -2690 84 -300 210 -747 280 -995 70 -247 136 -464 146
-482 63 -101 214 -116 304 -29 54 52 72 109 57 181 -5 28 -121 442 -255 920
-135 479 -279 992 -321 1140 -255 918 -569 2168 -549 2185 14 12 1737 303
2833 479 1699 272 3407 521 4805 700 215 28 410 53 436 56 l45 6 33 -103 c18
-57 65 -206 106 -333 239 -747 468 -1533 960 -3305 215 -773 312 -1117 326
-1151 14 -36 67 -85 111 -103 127 -53 268 42 268 181 0 26 -18 111 -40 188
-22 77 -164 586 -316 1130 -501 1798 -722 2552 -1003 3420 l-38 120 26 8 c30
8 788 97 1341 157 206 22 390 43 408 46 l32 5 0 199 c0 176 -2 200 -16 200
-27 0 -1161 -128 -1549 -174 -203 -25 -373 -42 -376 -38 -4 4 -12 25 -19 47
-61 194 -303 848 -450 1215 -542 1355 -1107 2369 -1746 3135 -201 241 -550
578 -819 790 l-38 30 214 89 c320 133 469 203 502 233 39 37 57 82 57 143 0
111 -88 200 -197 200 -40 0 -44 -2 -328 -125 -99 -42 -289 -121 -422 -175
l-243 -97 -122 63 c-68 34 -148 72 -178 85 -30 12 -57 24 -58 25 -2 1 14 33
37 71 22 37 53 100 68 138 25 63 27 82 27 195 1 113 -2 131 -26 187 -83 197
-249 342 -444 390 -91 22 -273 21 -379 -1 -198 -43 -461 -159 -666 -294 -131
-86 -154 -118 -154 -214 0 -57 4 -72 30 -110 53 -76 157 -109 238 -74 18 7 64
35 102 60 39 26 126 75 195 110 321 164 559 184 659 57 59 -76 65 -116 27
-196 -27 -57 -113 -175 -128 -175 -5 0 -46 9 -90 20 -441 113 -1028 118 -1543
14 -915 -184 -1762 -632 -2285 -1205 -599 -658 -912 -1450 -1016 -2564 -18
-200 -27 -861 -14 -1095 36 -626 119 -1258 266 -2025 31 -159 56 -294 57 -299
1 -5 -144 -36 -323 -68 -1381 -248 -2297 -418 -3445 -638 -198 -38 -371 -71
-384 -72 -23 -3 -25 5 -101 312 -72 290 -76 312 -53 285 164 -199 357 -328
589 -392 92 -26 112 -28 279 -27 152 0 192 4 258 22 249 68 462 209 608 401
63 83 153 263 176 352 9 38 20 69 23 69 3 0 23 -22 44 -50 126 -165 349 -309
574 -371 96 -26 346 -37 447 -20 226 40 430 145 592 307 368 367 423 944 130
1379 -57 85 -187 216 -274 276 -217 150 -481 219 -731 191 -145 -16 -236 -43
-367 -106 -122 -60 -218 -128 -305 -218 -115 -117 -219 -296 -264 -452 l-22
-75 -65 77 c-147 174 -339 291 -575 353 -77 20 -112 23 -254 23 -145 -1 -177
-4 -263 -27 -326 -87 -599 -318 -728 -618 -36 -83 -73 -208 -81 -274 -3 -19
-6 -25 -10 -15 -4 8 -61 222 -127 476 -213 814 -459 1702 -678 2444 -52 179
-96 331 -97 338 -1 9 36 27 94 48 634 227 1010 710 1121 1437 26 169 36 537
20 732 -47 572 -188 1169 -432 1822 -105 282 -172 430 -211 470 -38 40 -125
71 -163 58z m9144 -1609 c57 -9 106 -18 109 -21 2 -2 -11 -17 -29 -32 -189
-157 -267 -247 -294 -336 -19 -64 -19 -81 1 -146 23 -79 82 -134 174 -162 65
-19 87 -21 209 -16 207 9 466 71 869 209 l173 59 106 -73 c1036 -712 1931
-2114 2761 -4323 125 -331 254 -697 248 -702 -2 -3 -107 -18 -233 -34 -2316
-298 -4746 -670 -7616 -1165 -119 -20 -219 -35 -222 -32 -12 12 -124 608 -179
958 -62 393 -108 795 -138 1200 -17 232 -17 890 0 1095 64 775 238 1383 539
1884 285 473 655 829 1167 1121 449 257 1086 465 1591 519 55 6 116 13 135 15
82 10 530 -3 629 -18z m665 -171 c21 -9 37 -18 35 -20 -2 -2 -58 -19 -124 -39
l-120 -35 65 59 c69 64 73 64 144 35z m-6123 -5130 c235 -61 424 -250 490
-490 30 -111 24 -286 -14 -393 -51 -144 -145 -266 -271 -350 -106 -71 -204
-102 -343 -109 -138 -7 -219 10 -343 70 -120 58 -239 177 -298 297 -55 112
-75 193 -75 310 0 116 21 208 69 303 148 295 470 443 785 362z m-1993 -391
c245 -49 446 -234 521 -478 51 -165 35 -329 -46 -496 -39 -80 -59 -108 -132
-180 -98 -98 -186 -148 -315 -180 -428 -108 -847 221 -846 664 0 114 20 198
70 302 45 94 148 211 236 269 149 99 335 135 512 99z"/>
<path d="M13810 11018 c-59 -30 -101 -92 -107 -155 -5 -52 -2 -62 75 -248 27
-66 82 -212 122 -325 40 -113 83 -219 96 -236 13 -18 43 -41 67 -53 133 -64
287 30 287 176 0 35 -22 109 -79 268 -134 374 -189 501 -233 542 -59 55 -154
68 -228 31z"/>
<path d="M11120 10358 c-62 -34 -102 -93 -108 -160 -3 -42 2 -68 26 -128 55
-137 140 -429 218 -742 21 -85 33 -115 60 -147 123 -143 351 -55 347 134 -2
110 -204 812 -271 945 -37 74 -93 112 -169 118 -47 3 -67 -1 -103 -20z"/>
<path d="M13450 9204 c-228 -28 -559 -142 -917 -315 -144 -69 -165 -83 -190
-120 -24 -37 -28 -53 -28 -114 0 -62 4 -77 28 -112 38 -55 96 -86 163 -86 44
0 75 11 201 71 319 151 657 272 766 272 l28 0 -32 -47 c-75 -111 -233 -241
-554 -458 -223 -150 -286 -201 -320 -259 -49 -83 -42 -185 17 -252 67 -76 153
-94 348 -75 325 33 737 155 1097 326 114 54 135 68 159 105 62 94 37 223 -54
281 -68 43 -143 41 -242 -7 -87 -41 -161 -73 -279 -120 l-84 -33 87 85 c103
100 167 184 212 277 114 238 28 498 -188 562 -53 15 -165 25 -218 19z"/>
</g>
</svg>
